<?xml version="1.0" standalone="no"?><!DOCTYPE svg PUBLIC "-//W3C//DTD SVG 1.1//EN"
  "http://www.w3.org/Graphics/SVG/1.1/DTD/svg11.dtd">
<svg t="1551869348866" class="icon" style="" viewBox="0 0 1024 1024" version="1.1" xmlns="http://www.w3.org/2000/svg"
     p-id="1009" xmlns:xlink="http://www.w3.org/1999/xlink" width="128" height="128">
  <defs>
    <style type="text/css"></style>
  </defs>
  <path
    d="M403.2 925.4c-6-70.4-14.4-258.8 66.7-255.7 2.6 0.1 5.1 1.3 6.8 3.3 13.9 15.9 68.5 95.1-54.7 257.9-5.7 7.7-18 4.1-18.8-5.5z"
    fill="#FFDA00" p-id="1010"></path>
  <path
    d="M413.8 947.6c-2.2 0-4.3-0.3-6.5-0.9-9.3-2.7-15.8-10.6-16.6-20.2-6.2-73.5-9.9-203.7 35.1-250.9 12.3-12.9 27.3-19.1 44.6-18.5 6 0.2 11.8 3 15.8 7.6 19.3 22 72.4 106.6-54.1 273.8-4.5 5.9-11.2 9.1-18.3 9.1zM468 682.3c-9.3 0-17.2 3.5-24.1 10.7-27.1 28.4-37.7 112.6-28.6 226 111.2-149.7 65.5-221.6 52.7-236.7 0.1 0 0 0 0 0z"
    fill="#1B1C26" p-id="1011"></path>
  <path
    d="M604.1 93.9c-37.4 59.9-130.8 223.4-57.6 257.9 2.6 1.2 5.6 1.1 8.3 0.1 20.5-8.3 103.5-54.8 68.6-254.2-1.7-9.6-14.2-12-19.3-3.8z"
    fill="#FFDA00" p-id="1012"></path>
  <path
    d="M550.6 365.2c-3.3 0-6.5-0.7-9.4-2.1-15.6-7.4-26.1-19.8-31.1-36.8-18.4-62.5 44.3-176.7 83.4-239.1 5.1-8.2 14.5-12.2 24-10.4 9.5 1.8 16.6 9.2 18.3 18.6 36.1 205.5-49.2 257.1-76.2 268.1-3 1.1-6 1.7-9 1.7z m61.3-260c-59.7 96.6-88.7 176.4-77.7 214 2.8 9.6 8.3 16.4 16.6 20.6 17.4-7.3 91.8-50.2 61.1-234.6z"
    fill="#1B1C26" p-id="1013"></path>
  <path
    d="M624.1 925.2c-40.3-57.9-141.7-216.7-70.3-254.7 2.5-1.3 5.5-1.4 8.2-0.5 20.9 7.3 106.1 49.6 81.1 250.5-1.2 9.5-13.5 12.5-19 4.7z"
    fill="#FFDA00" p-id="1014"></path>
  <path
    d="M632.6 942.2c-7.4 0-14.5-3.6-18.9-9.9-42.1-60.4-110.4-171.3-95.1-234.7 4.2-17.3 14-30.2 29.3-38.3 5.5-2.9 12.2-3.4 18.3-1.2 27.5 9.6 115.2 56.9 89.4 264-1.2 9.5-8 17.2-17.4 19.5-1.8 0.4-3.7 0.6-5.6 0.6z m1.8-24.2z m-75.7-235.9c-8.1 4.7-13.2 11.7-15.6 21.4-9.2 38.1 23.7 116.4 88.2 209.9 21.6-185.6-54.9-224.8-72.6-231.3z"
    fill="#1B1C26" p-id="1015"></path>
  <path
    d="M382.3 104.6c-2.5 70.6-1.6 259.2 79.3 252.1 2.6-0.2 5-1.6 6.6-3.6 13.1-16.5 63.7-98.4-67.4-254.9-6.2-7.4-18.2-3.2-18.5 6.4z"
    fill="#FFDA00" p-id="1016"></path>
  <path
    d="M457.1 369.5c-15 0-28.4-5.5-40-16.5-47.3-44.9-50-175.2-47.4-248.9 0.3-9.6 6.5-17.9 15.6-21 9.1-3.1 19-0.4 25.2 7 134.7 160.8 85.8 247.9 67.6 270.8-3.8 4.8-9.4 7.8-15.4 8.4-1.9 0.1-3.8 0.2-5.6 0.2z m-62.4-259c-3.4 113.7 11.4 197.3 39.8 224.3 7.2 6.9 15.3 10 24.6 9.5 11.9-15.8 54.1-89.9-64.4-233.8z"
    fill="#1B1C26" p-id="1017"></path>
  <path
    d="M815.2 814.5c-64-30-231.3-116.9-188.1-185.6 1.4-2.2 3.7-3.7 6.3-4.3 20.7-4.1 116.6-11.8 196 176.3 3.7 8.9-5.5 17.7-14.2 13.6z"
    fill="#FFDA00" p-id="1018"></path>
  <path
    d="M819.7 828.1c-3.3 0-6.7-0.7-9.9-2.2-66.7-31.3-181.4-93.3-199.8-155.8-5-17.1-2.9-33.2 6.3-47.9 3.2-5.1 8.5-8.7 14.5-9.9 28.7-5.7 128.5-9.4 210 183.8 3.7 8.9 1.7 18.9-5.3 25.6-4.2 4.2-9.9 6.4-15.8 6.4zM637.1 636.7c-4.7 8.1-5.6 16.7-2.8 26.3 11 37.6 78.7 88.9 181.4 137.8-74-171.2-159.1-167.5-178.6-164.1z"
    fill="#1B1C26" p-id="1019"></path>
  <path
    d="M195.5 224.7c33.2 62.4 128.2 225.2 194.7 178.7 2.1-1.5 3.5-3.9 3.9-6.5 3.1-20.9 6-117-185.8-187-8.9-3.2-17.3 6.4-12.8 14.8z"
    fill="#FFDA00" p-id="1020"></path>
  <path
    d="M364.9 424.3c-4.8 0-9.8-0.6-14.9-1.8-63.5-15.3-131-126.7-165.6-191.8-4.5-8.5-3.3-18.7 3-26 6.3-7.3 16.2-9.8 25.3-6.5C409.7 270.1 411 370 406.6 398.9c-0.9 6-4.2 11.5-9.2 14.9-10 7-20.9 10.5-32.5 10.5zM209.2 223.7C263.1 323.8 317.7 388.8 355.8 398c9.7 2.3 18.2 1 26.1-4.1 2.4-19.6 1.9-104.9-172.7-170.2z"
    fill="#1B1C26" p-id="1021"></path>
  <path
    d="M925.4 623.1c-70.4 6-258.8 14.4-255.7-66.7 0.1-2.6 1.3-5.1 3.3-6.8 15.9-13.9 95.1-68.5 257.9 54.7 7.7 5.8 4.1 18-5.5 18.8z"
    fill="#FFDA00" p-id="1022"></path>
  <path
    d="M844 639.3c-65.2 0-136.2-8-168.4-38.8-12.9-12.3-19.1-27.3-18.5-44.6 0.2-6 3-11.8 7.6-15.8 21.9-19.3 106.6-72.4 273.8 54.1 7.7 5.8 10.9 15.5 8.2 24.8-2.7 9.3-10.6 15.8-20.2 16.6-23.3 2-52.3 3.7-82.5 3.7z m-161.8-81.1c0 9.3 3.5 17.2 10.7 24.1 28.4 27.1 112.6 37.7 226 28.6-149.6-111.2-221.5-65.4-236.7-52.7z"
    fill="#1B1C26" p-id="1023"></path>
  <path
    d="M93.9 422.2c59.9 37.4 223.4 130.8 257.9 57.6 1.2-2.6 1.1-5.6 0.1-8.3C343.5 451 297 368 97.6 403c-9.5 1.6-11.9 14.1-3.7 19.2z"
    fill="#FFDA00" p-id="1024"></path>
  <path
    d="M301.1 519.6c-64.6 0-159.1-52.5-213.9-86.7-8.2-5.1-12.3-14.5-10.4-24 1.8-9.5 9.2-16.6 18.6-18.3 205.5-36 257.1 49.2 268.1 76.2 2.4 6 2.3 12.7-0.3 18.3-7.4 15.6-19.8 26.1-36.8 31.1-7.8 2.3-16.3 3.4-25.3 3.4zM105.2 414.4c96.6 59.7 176.4 88.7 214 77.7 9.6-2.8 16.4-8.3 20.6-16.6-7.3-17.4-50.2-91.8-234.6-61.1z m-4.7-2.9z"
    fill="#1B1C26" p-id="1025"></path>
  <path
    d="M925.2 402.2c-57.9 40.3-216.7 141.7-254.7 70.3-1.3-2.5-1.4-5.5-0.5-8.2 7.3-20.9 49.6-106.1 250.5-81.1 9.5 1.2 12.5 13.5 4.7 19z"
    fill="#FFDA00" p-id="1026"></path>
  <path
    d="M717.5 509.9c-7 0-13.6-0.7-19.8-2.2-17.3-4.2-30.2-14-38.3-29.2-2.9-5.5-3.4-12.2-1.2-18.3 9.6-27.5 56.9-115.2 264-89.4 9.5 1.2 17.2 8 19.5 17.3 2.3 9.4-1.3 19-9.2 24.5-54.7 37.9-150.3 97.3-215 97.3z m-35.4-42.3c4.7 8.1 11.7 13.2 21.4 15.6 38.1 9.2 116.4-23.7 209.9-88.2-185.5-21.6-224.7 54.9-231.3 72.6zM918 391.9z"
    fill="#1B1C26" p-id="1027"></path>
  <path
    d="M104.6 644c70.6 2.5 259.2 1.6 252.1-79.3-0.2-2.6-1.6-5-3.6-6.6-16.5-13.1-98.4-63.7-254.9 67.4-7.4 6.2-3.2 18.2 6.4 18.5z"
    fill="#FFDA00" p-id="1028"></path>
  <path
    d="M141.8 657.3c-13.6 0-26.3-0.3-37.7-0.7-9.6-0.3-17.9-6.5-21-15.6-3.1-9.1-0.4-19 7-25.2C250.9 481.2 338 530 360.9 548.2c4.8 3.8 7.8 9.4 8.4 15.4 1.5 17.3-3.9 32.6-16.2 45.5-38 40-137.1 48.2-211.3 48.2z m-31.3-25.7c113.6 3.5 197.3-11.4 224.3-39.8 6.9-7.2 10-15.3 9.5-24.6-15.8-11.9-89.9-54.1-233.8 64.4z"
    fill="#1B1C26" p-id="1029"></path>
  <path
    d="M814.5 211.1c-30 64-116.9 231.3-185.6 188.1-2.2-1.4-3.7-3.7-4.3-6.3-4.1-20.7-11.8-116.6 176.3-196 8.9-3.7 17.7 5.5 13.6 14.2z"
    fill="#FFDA00" p-id="1030"></path>
  <path
    d="M652.4 418.8c-10.6 0-20.7-3-30.3-9-5.1-3.2-8.7-8.5-9.9-14.5-5.7-28.7-9.4-128.5 183.8-210 8.9-3.7 18.9-1.7 25.6 5.3 6.7 7 8.4 17.1 4.3 25.8-31.3 66.7-93.3 181.4-155.8 199.8-6 1.8-11.9 2.6-17.7 2.6z m-15.7-29.5c8.1 4.7 16.7 5.6 26.3 2.8 37.6-11 88.9-78.7 137.8-181.4-171.2 73.9-167.5 159.1-164.1 178.6z"
    fill="#1B1C26" p-id="1031"></path>
  <path
    d="M224.7 830.8c62.4-33.2 225.2-128.2 178.7-194.7-1.5-2.1-3.9-3.5-6.5-3.9-20.9-3.1-117-6-187 185.8-3.2 9 6.4 17.3 14.8 12.8z"
    fill="#FFDA00" p-id="1032"></path>
  <path
    d="M219.8 844.6c-5.4 0-10.8-1.9-15.1-5.7-7.3-6.3-9.8-16.2-6.5-25.3 71.9-197 171.8-198.3 200.7-193.9 6 0.9 11.5 4.2 14.9 9.2 9.9 14.2 12.9 30.2 8.7 47.5-15.2 63.4-126.7 130.9-191.8 165.5-3.5 1.8-7.2 2.7-10.9 2.7z m166-200.6c-28.9 0-103.5 16.6-162.2 173.1C323.8 763.2 388.8 708.6 398 670.5c2.3-9.7 1-18.2-4.1-26.1-2-0.2-4.8-0.4-8.1-0.4z"
    fill="#1B1C26" p-id="1033"></path>
  <path d="M513.5 513m-215.5 0a215.5 215.5 0 1 0 431 0 215.5 215.5 0 1 0-431 0Z" fill="#FF7B57" p-id="1034"></path>
  <path
    d="M513.5 741c-125.7 0-228-102.3-228-228s102.3-228.1 228.1-228.1 228 102.3 228 228.1-102.3 228-228.1 228z m0-430.9c-111.9 0-202.9 91-202.9 202.9s91 202.9 202.9 202.9 202.9-91 202.9-202.9-91-202.9-202.9-202.9z"
    fill="#1B1C26" p-id="1035"></path>
  <path d="M314.3 402h392.3" fill="#FF7B57" p-id="1036"></path>
  <path
    d="M706.6 414.6H314.3c-7 0-12.6-5.6-12.6-12.6s5.6-12.6 12.6-12.6h392.3c7 0 12.6 5.6 12.6 12.6s-5.7 12.6-12.6 12.6z"
    fill="#1B1C26" p-id="1037"></path>
  <path d="M314.3 619.8h392.3" fill="#FF7B57" p-id="1038"></path>
  <path
    d="M706.6 632.4H314.3c-7 0-12.6-5.6-12.6-12.6s5.6-12.6 12.6-12.6h392.3c7 0 12.6 5.6 12.6 12.6s-5.7 12.6-12.6 12.6z"
    fill="#1B1C26" p-id="1039"></path>
  <path d="M314.3 510.9h392.3" fill="#FF7B57" p-id="1040"></path>
  <path
    d="M706.6 523.5H314.3c-7 0-12.6-5.6-12.6-12.6s5.6-12.6 12.6-12.6h392.3c7 0 12.6 5.6 12.6 12.6s-5.7 12.6-12.6 12.6z"
    fill="#1B1C26" p-id="1041"></path>
  <path d="M401.5 707V314.7" fill="#FF7B57" p-id="1042"></path>
  <path
    d="M401.5 719.6c-7 0-12.6-5.6-12.6-12.6V314.7c0-7 5.6-12.6 12.6-12.6s12.6 5.6 12.6 12.6V707c0 7-5.6 12.6-12.6 12.6z"
    fill="#1B1C26" p-id="1043"></path>
  <path d="M619.3 707V314.7" fill="#FF7B57" p-id="1044"></path>
  <path
    d="M619.3 719.6c-7 0-12.6-5.6-12.6-12.6V314.7c0-7 5.6-12.6 12.6-12.6s12.6 5.6 12.6 12.6V707c0 7-5.6 12.6-12.6 12.6z"
    fill="#1B1C26" p-id="1045"></path>
  <path d="M510.4 707V314.7" fill="#FF7B57" p-id="1046"></path>
  <path
    d="M510.4 719.6c-7 0-12.6-5.6-12.6-12.6V314.7c0-7 5.6-12.6 12.6-12.6s12.6 5.6 12.6 12.6V707c0 7-5.6 12.6-12.6 12.6z"
    fill="#1B1C26" p-id="1047"></path>
  <path d="M557.3 471.2c16.2 0 16.2-25.2 0-25.2-16.2 0.1-16.2 25.2 0 25.2z" fill="#441A10" p-id="1048"></path>
  <path d="M462.1 471.2c16.2 0 16.2-25.2 0-25.2-16.2 0.1-16.2 25.2 0 25.2z" fill="#441A10" p-id="1049"></path>
  <path d="M353.6 471.2c16.2 0 16.2-25.2 0-25.2-16.2 0.1-16.2 25.2 0 25.2z" fill="#441A10" p-id="1050"></path>
  <path d="M671.1 471.2c16.2 0 16.2-25.2 0-25.2-16.2 0.1-16.2 25.2 0 25.2z" fill="#441A10" p-id="1051"></path>
  <path d="M673.8 582.4c16.2 0 16.2-25.2 0-25.2s-16.3 25.2 0 25.2z" fill="#441A10" p-id="1052"></path>
  <path d="M565.3 582.4c16.2 0 16.2-25.2 0-25.2s-16.2 25.2 0 25.2z" fill="#441A10" p-id="1053"></path>
  <path d="M459.4 585c16.2 0 16.2-25.2 0-25.2-16.2 0.1-16.2 25.2 0 25.2z" fill="#441A10" p-id="1054"></path>
  <path d="M353.6 585c16.2 0 16.2-25.2 0-25.2-16.2 0.1-16.2 25.2 0 25.2z" fill="#441A10" p-id="1055"></path>
  <path d="M462.1 682.9c16.2 0 16.2-25.2 0-25.2-16.2 0.1-16.2 25.2 0 25.2z" fill="#441A10" p-id="1056"></path>
  <path d="M567.9 680.3c16.2 0 16.2-25.2 0-25.2s-16.2 25.2 0 25.2z" fill="#441A10" p-id="1057"></path>
  <path d="M459.4 365.4c16.2 0 16.2-25.2 0-25.2s-16.2 25.2 0 25.2z" fill="#441A10" p-id="1058"></path>
  <path d="M565.3 368c16.2 0 16.2-25.2 0-25.2-16.2 0.1-16.2 25.2 0 25.2z" fill="#441A10" p-id="1059"></path>
</svg>
